<svg width="28" height="30" viewBox="0 0 28 30" fill="none" xmlns="http://www.w3.org/2000/svg">
<g id="&#235;&#130;&#168;&#235;&#176;&#169;&#237;&#129;&#176;&#235;&#143;&#140;&#234;&#179;&#160;&#235;&#158;&#152;" clip-path="url(#clip0_666_1901)">
<path id="Vector" d="M16.2665 16.6876C19.4519 15.8274 21.784 11.4449 21.784 10.9483C21.784 10.6078 21.6789 10.2956 20.7614 10.191C19.8439 10.0863 17.8004 10.191 17.8004 10.191C16.4108 10.6344 15.9921 11.1044 15.7302 11.9131C15.4683 12.7219 15.1797 15.5915 15.1797 15.9303C15.1797 16.269 15.4095 16.9181 16.2665 16.6876Z" fill="#DAE3EA"/>
<path id="Vector_2" d="M26.1199 9.53119C25.3574 9.53119 24.7391 8.91576 24.7391 8.15667H24.7285C24.1352 5.84393 21.9563 2.70648 17.693 2.70648C9.71321 2.70648 7.798 3.8061 3.7627 8.15667C1.01905 11.1647 -1.03334 18.6332 2.80599 24.5126C0.970948 24.9684 0.270783 26.35 0.564745 28.0384C0.723307 28.9465 0.908592 29.3686 1.02261 29.6169C1.13664 29.8634 1.42347 30.0727 2.09157 29.9787C2.09157 29.9787 3.65759 29.5229 4.09586 29.3704C4.53413 29.2179 4.87798 28.8578 5.16481 28.1342C5.7759 28.6166 6.25514 28.7585 6.71123 28.6716C7.16732 28.5847 8.75293 28.2016 8.75293 28.2016C9.38005 27.9515 9.52258 27.627 9.49764 27.3574C9.4727 27.086 9.42103 26.6284 9.10213 25.7629C8.4946 24.1135 7.14416 23.2604 5.25389 23.8617L4.74614 23.9965C4.13505 21.3769 6.99272 12.2785 15.7492 12.2785H26.1181C26.8806 12.2785 27.4988 11.663 27.4988 10.9039C27.4988 10.1449 26.8806 9.52942 26.1181 9.52942L26.1199 9.53119Z" fill="#E7ECF0"/>
<path id="Vector_3" d="M20.919 11.5495C20.4736 10.324 18.4034 7.48094 14.9453 7.89773C11.4873 8.31452 8.70977 9.2013 6.2191 11.9929C3.91373 14.577 3.81218 18.3476 5.16262 20.4227C6.31353 16.8312 9.55602 12.2785 15.7506 12.2785H21.1221C21.0776 12.0408 21.0134 11.8031 20.9208 11.5495H20.919Z" fill="#F6F6F7"/>
<path id="Vector_4" d="M12.704 16.6876C15.8894 15.8274 18.2215 11.4449 18.2215 10.9483C18.2215 10.6078 18.1164 10.2956 17.1989 10.191C16.2814 10.0863 14.2379 10.191 14.2379 10.191C12.8483 10.6344 12.4296 11.1044 12.1677 11.9131C11.9058 12.7219 11.6172 15.5915 11.6172 15.9303C11.6172 16.269 11.847 16.9181 12.704 16.6876Z" fill="#E7ECF0"/>
<path id="Vector_5" d="M15.0476 2.75968C14.791 2.02542 14.0481 0.915161 11.8888 0.324561C8.48419 -0.606565 7.41524 0.723615 7.31547 1.05527C7.22639 1.34969 7.21748 2.37127 8.50913 4.14307C10.1678 3.28998 12.1097 2.89092 15.0476 2.75968Z" fill="#DAE3EA"/>
<path id="Vector_6" d="M20.0618 7.08364C20.6483 7.08364 21.1237 6.61039 21.1237 6.02659C21.1237 5.4428 20.6483 4.96954 20.0618 4.96954C19.4754 4.96954 19 5.4428 19 6.02659C19 6.61039 19.4754 7.08364 20.0618 7.08364Z" fill="#555056"/>
</g>
<defs>
<clipPath id="clip0_666_1901">
<rect width="27" height="30" fill="white" transform="translate(0.5)"/>
</clipPath>
</defs>
</svg>
