<svg width="34" height="22" viewBox="0 0 34 22" fill="none" xmlns="http://www.w3.org/2000/svg">
<g id="&#235;&#176;&#148;&#235;&#139;&#164;&#234;&#177;&#176;&#235;&#182;&#129;" clip-path="url(#clip0_666_1925)">
<path id="Vector" d="M29.1369 13.5641C31.5467 13.5641 33.5003 11.6349 33.5003 9.25517C33.5003 6.87544 31.5467 4.94629 29.1369 4.94629C26.727 4.94629 24.7734 6.87544 24.7734 9.25517C24.7734 11.6349 26.727 13.5641 29.1369 13.5641Z" fill="#F1CDC7"/>
<path id="Vector_2" d="M14.82 0C7.82228 0 2.15234 5.60097 2.15234 12.5094H27.4878C27.4878 5.60097 21.8159 0 14.82 0Z" fill="#ACD5B3"/>
<path id="Vector_3" d="M25.8309 16.69C22.5627 18.5411 21.8649 18.9277 15.7181 19.4024C9.57128 19.8772 6.34766 17.0346 6.34766 17.0346V14.1403L25.3948 13.7364L25.8309 16.69Z" fill="#746D79"/>
<path id="Vector_4" d="M9.49821 4.3759L9.37609 0.928406M9.49821 4.3759L14.7204 6.42601M9.49821 4.3759L6.01483 8.76518M14.8405 13.2272L14.7204 6.42601M14.7204 6.42601L20.055 4.3759M6.01483 8.76518L8.44757 13.7345M6.01483 8.76518L2.55859 8.91831M20.1054 1.09494L20.055 4.3759M20.055 4.3759L23.7089 9.05422M23.7089 9.05422H27.045M23.7089 9.05422L21.4022 13.2023" stroke="#96CA9C" stroke-width="1.6" stroke-linecap="round" stroke-linejoin="round"/>
<path id="Vector_5" d="M27.487 12.5093H2.15155C1.24048 12.5093 0.5 13.2387 0.5 14.1402C0.5 15.0418 1.23855 15.7712 2.15155 15.7712H27.487C28.398 15.7712 29.1385 15.0418 29.1385 14.1402C29.1385 13.2387 28.4 12.5093 27.487 12.5093Z" fill="#655F68"/>
<path id="Vector_6" d="M12.3854 15.7692H3.48989L3.0111 21.1175C2.96845 21.5903 3.34645 21.9981 3.82718 21.9981H5.95946C6.48478 21.887 6.87441 21.4391 6.94419 21.0888C7.49859 18.3132 9.15789 16.734 12.3854 15.7692Z" fill="#F1CDC7"/>
<path id="Vector_7" d="M27.8483 21.1118L27.323 15.7692H18.6523C21.8798 16.734 23.3472 18.2386 23.954 20.9567C24.0509 21.3913 24.553 21.9368 25.0608 21.9981H27.0342C27.5188 21.9981 27.8968 21.5865 27.8502 21.1099L27.8483 21.1118Z" fill="#F1CDC7"/>
</g>
<defs>
<clipPath id="clip0_666_1925">
<rect width="33" height="22" fill="white" transform="translate(0.5)"/>
</clipPath>
</defs>
</svg>
