<svg width="28" height="30" viewBox="0 0 28 30" fill="none" xmlns="http://www.w3.org/2000/svg">
<g id="&#236;&#131;&#129;&#234;&#180;&#173;&#236;&#157;&#180;" clip-path="url(#clip0_666_1933)">
<path id="Vector" d="M16.937 15.3675C20.359 14.422 22.8643 9.60491 22.8643 9.05907C22.8643 8.68478 22.7513 8.34167 21.7657 8.22666C20.7801 8.11164 18.5848 8.22666 18.5848 8.22666C17.092 8.71402 16.6423 9.23062 16.3609 10.1196C16.0796 11.0085 15.7695 14.1627 15.7695 14.5351C15.7695 14.9074 16.0164 15.6209 16.937 15.3675Z" fill="#DAE3EA"/>
<path id="Vector_2" d="M26.7566 7.49951C25.9375 7.49951 26.0294 6.82306 26.0294 5.98869C25.3901 3.44857 23.0514 0 18.4715 0C9.89922 0 7.8418 1.20866 3.50496 5.99064C0.557591 9.2969 -1.64719 17.506 2.47721 23.9684C0.505916 24.4694 -0.246237 25.988 0.0695528 27.8439C0.239888 28.842 0.438931 29.306 0.561419 29.5789C0.683907 29.8499 0.992041 30.0799 1.70974 29.9766C1.70974 29.9766 3.39204 29.4756 3.86285 29.3079C4.33367 29.1403 4.70305 28.7446 5.01118 27.9492C5.66764 28.4794 6.18247 28.6354 6.67242 28.5399C7.16238 28.4443 8.86573 28.0233 8.86573 28.0233C9.53941 27.7484 9.69252 27.3916 9.66573 27.0953C9.63893 26.7971 9.58343 26.2941 9.24084 25.3428C8.58821 23.5298 7.1375 22.5921 5.10687 23.253L4.56142 23.4011C3.90496 20.5218 6.97481 10.5212 16.3815 10.5212H26.7547C27.5739 10.5212 27.9987 9.84469 27.9987 9.01033C27.9987 8.17597 27.5739 7.49951 26.7547 7.49951H26.7566Z" fill="#E7ECF0"/>
<path id="Vector_3" d="M21.9353 9.71798C21.4569 8.37091 19.2329 5.24595 15.5181 5.70407C11.8033 6.16219 8.81955 7.13691 6.14395 10.2053C3.6674 13.0457 3.55831 17.1902 5.00902 19.471C6.24539 15.5234 9.72864 10.5192 16.3832 10.5192H22.1535C22.1057 10.258 22.0368 9.99675 21.9373 9.71798H21.9353Z" fill="#F6F6F7"/>
<path id="Vector_4" d="M13.1089 15.3675C16.5309 14.422 19.0361 9.60491 19.0361 9.05907C19.0361 8.68478 18.9232 8.34167 17.9376 8.22666C16.9519 8.11164 14.7567 8.22666 14.7567 8.22666C13.2639 8.71402 12.8141 9.23062 12.5328 10.1196C12.2515 11.0085 11.9414 14.1627 11.9414 14.5351C11.9414 14.9074 12.1883 15.6209 13.1089 15.3675Z" fill="#E7ECF0"/>
<path id="Vector_5" d="M21.0118 4.80927C21.6417 4.80927 22.1524 4.28909 22.1524 3.6474C22.1524 3.00572 21.6417 2.48553 21.0118 2.48553C20.3818 2.48553 19.8711 3.00572 19.8711 3.6474C19.8711 4.28909 20.3818 4.80927 21.0118 4.80927Z" fill="#555056"/>
</g>
<defs>
<clipPath id="clip0_666_1933">
<rect width="28" height="30" fill="white"/>
</clipPath>
</defs>
</svg>
